<?xml version="1.0" encoding="UTF-8" standalone="no"?>
<!DOCTYPE svg PUBLIC "-//W3C//DTD SVG 1.1//EN" "http://www.w3.org/Graphics/SVG/1.1/DTD/svg11.dtd">
<svg width="100%" height="100%" viewBox="0 0 330 500" version="1.1" xmlns="http://www.w3.org/2000/svg" xmlns:xlink="http://www.w3.org/1999/xlink" xml:space="preserve" xmlns:serif="http://www.serif.com/" style="fill-rule:evenodd;clip-rule:evenodd;stroke-linecap:round;stroke-linejoin:round;stroke-miterlimit:1.5;">
    <g transform="matrix(1,0,0,1,-235,-50)">
        <g transform="matrix(3.6624,0,0,3.63313,-899.959,-501.829)">
            <rect x="309.895" y="151.888" width="90.105" height="137.622" style="fill:rgb(247,107,21);"/>
        </g>
        <g transform="matrix(0.748317,0,0,0.925289,100.673,20.6115)">
            <path d="M400,141.617L336.943,146.316L328.887,187.267L343.656,240.302L375.88,270.512L400,275.883" style="fill:rgb(173,127,88);"/>
            <g transform="matrix(-1,0,0,1,800,0)">
                <path d="M400.03,141.617L336.943,146.316L328.887,187.267L343.656,240.302L375.88,270.512L400,275.883" style="fill:rgb(173,127,88);stroke:black;stroke-opacity:0;stroke-width:1.19px;"/>
            </g>
        </g>
        <g>
            <path d="M400,160.068L347.951,174.909L343.577,166.16L355.762,147.258L400,142.415"/>
            <g transform="matrix(-1,0,0,1,800,0)">
                <path d="M400,160.068L347.951,174.909L343.577,166.16L355.762,147.258L400,142.415"/>
            </g>
        </g>
        <g transform="matrix(0.733333,0,0,0.499378,100.356,95.8056)">
            <ellipse cx="375.848" cy="191.373" rx="19.798" ry="6.335"/>
        </g>
        <rect x="363.844" y="272.897" width="67.424" height="131.232" style="fill:rgb(240,240,240);"/>
        <g transform="matrix(0.742637,0,0,1,102.945,0)">
            <path d="M378.428,311.793L383.434,322.943L370.785,513.639L400,535.362L400,272.897L378.759,283.126L378.428,311.793Z" style="fill:rgb(33,33,33);"/>
            <g transform="matrix(-1,0,0,1,800,0)">
                <path d="M378.428,311.793L383.434,322.943L370.785,513.639L400,535.362L400,272.897L378.759,283.126L378.428,311.793Z" style="fill:rgb(33,33,33);"/>
            </g>
        </g>
        <g>
            <path d="M400,535.362L380.236,451.315L368.733,293.139L355.33,285.931L283.839,300L267.706,366.417L294.136,460.926L278.919,550L400,550" style="fill:rgb(141,141,141);"/>
            <g transform="matrix(-1,0,0,1,800,0)">
                <path d="M400,535.362L380.236,451.315L368.733,293.139L355.33,285.931L283.839,300L267.706,366.417L294.136,460.926L278.919,550L400,550" style="fill:rgb(141,141,141);"/>
            </g>
        </g>
        <g transform="matrix(0.876646,0,0,1,49.3414,5.68434e-14)">
            <path d="M365.91,268.29L361.459,268.29L330.166,285.934L348.622,310.5L328.667,326.877L361.459,427.772L381.032,482.075L400,535.362L391.922,482.877L365.91,268.29Z" style="fill:rgb(131,131,131);"/>
        </g>
        <g transform="matrix(-0.876646,0,0,1,750.659,5.68434e-14)">
            <path d="M365.91,268.29L361.459,268.29L330.166,285.934L348.622,310.5L328.667,326.877L361.459,427.772L381.032,482.075L400,535.362L391.922,482.877L365.91,268.29Z" style="fill:rgb(131,131,131);"/>
        </g>
        <g>
            <path d="M400,256.509L370.115,250.129L348.622,275.883L375.978,316.123L400,273.667" style="fill:white;"/>
            <g transform="matrix(-1,0,0,1,800,0)">
                <path d="M400,256.509L370.115,250.129L348.622,275.883L375.978,316.123L400,273.667" style="fill:white;"/>
            </g>
        </g>
        <g transform="matrix(0.732387,0,0,0.499378,148.734,95.8056)">
            <ellipse cx="375.848" cy="191.373" rx="19.798" ry="6.335"/>
        </g>
    </g>
</svg>
