<?xml version="1.0" encoding="UTF-8" standalone="no"?>
<!DOCTYPE svg PUBLIC "-//W3C//DTD SVG 1.1//EN" "http://www.w3.org/Graphics/SVG/1.1/DTD/svg11.dtd">
<svg width="100%" height="100%" viewBox="0 0 331 502" version="1.1" xmlns="http://www.w3.org/2000/svg" xmlns:xlink="http://www.w3.org/1999/xlink" xml:space="preserve" xmlns:serif="http://www.serif.com/" style="fill-rule:evenodd;clip-rule:evenodd;stroke-linecap:round;stroke-linejoin:round;stroke-miterlimit:1.5;">
    <g transform="matrix(1,0,0,1,0.00143894,0.00031886)">
        <g transform="matrix(1,0,0,1,-243.165,-50)">
            <g transform="matrix(1.71635,0,0,1.22822,-315.34,-89.2645)">
                <rect x="325.403" y="113.387" width="192.269" height="407.094" style="fill:rgb(70,167,88);"/>
            </g>
            <g id="Perso">
                <g transform="matrix(1.81746,0,0,1.81746,-321.006,-72.8988)">
                    <path d="M353.356,224.569C333.412,227.598 319.809,250.84 311.901,283.649C306.673,315.75 316.237,340.089 325.297,342.729L402.404,342.729L402.404,224.569L353.356,224.569Z" style="fill:rgb(131,131,131);"/>
                </g>
                <g transform="matrix(-1.81746,0,0,1.81746,1137.34,-72.8988)">
                    <path d="M353.356,224.569C333.412,227.598 319.809,250.84 311.901,283.649C306.673,315.75 316.237,340.089 325.297,342.729L402.404,342.729L402.404,224.569L353.356,224.569Z" style="fill:rgb(131,131,131);"/>
                </g>
                <g transform="matrix(1.81746,0,0,1.81746,-321.006,-72.8988)">
                    <path d="M353.356,342.729L402.404,342.729L402.404,229.404L377.88,229.404C372.713,240.93 364.051,248.6 353.309,253.975L353.356,342.729Z" style="fill:white;"/>
                </g>
                <g transform="matrix(-1.81746,0,0,1.81746,1141.71,-72.8988)">
                    <path d="M353.356,342.729L402.404,342.729L402.404,229.404L377.88,229.404C372.713,240.93 364.051,248.6 353.309,253.975L353.356,342.729Z" style="fill:white;"/>
                </g>
                <g transform="matrix(2.44125,0,0,1.00549,-572.021,223.069)">
                    <path d="M402.404,120.306L402.404,325.147" style="fill:none;stroke:rgb(139,139,139);stroke-width:1.07px;"/>
                </g>
                <g transform="matrix(-1.81746,0,0,1.81746,1141.71,-72.8988)">
                    <path d="M376.494,201.403L353.356,224.542L376.549,247.735L402.404,232.392L402.404,218.093L376.494,201.403Z" style="fill:rgb(141,141,141);"/>
                </g>
                <g transform="matrix(1.81746,0,0,1.81746,-321.006,-72.8988)">
                    <path d="M376.494,201.403L353.356,224.542L376.549,247.735L402.404,232.392L402.404,218.093L376.494,201.403Z" style="fill:rgb(141,141,141);"/>
                </g>
                <g transform="matrix(1.81746,0,0,2.07864,-321.006,-105.704)">
                    <ellipse cx="402.404" cy="169.376" rx="37.863" ry="43.771" style="fill:rgb(160,117,83);"/>
                </g>
                <g transform="matrix(1.81746,0,0,1.6825,-321.006,-57.1911)">
                    <path d="M402.404,116.388L358.584,129.946L343.024,158.683L348.128,190.536L370.302,208.223L366.958,173.652L369.223,155.541L388.196,136.627L402.404,133.136L402.404,116.388Z" style="fill:rgb(23,23,23);"/>
                    <g transform="matrix(-1.00073,0,0,1,805.103,0)">
                        <path d="M402.404,116.388L358.584,129.946L343.024,158.683L348.128,190.536L370.302,208.223L366.958,173.652L369.223,155.541L388.196,136.627L402.404,133.136L402.404,116.388Z" style="fill:rgb(23,23,23);"/>
                    </g>
                </g>
                <g transform="matrix(1.81746,0,0,1.81746,-320.039,-63.8115)">
                    <ellipse cx="384.768" cy="159.596" rx="4.1" ry="9.055"/>
                </g>
                <g transform="matrix(1.81746,0,0,1.81746,-257.81,-63.8115)">
                    <ellipse cx="384.768" cy="159.596" rx="4.1" ry="9.055"/>
                </g>
            </g>
        </g>
    </g>
</svg>
