<?xml version="1.0" encoding="UTF-8" standalone="no"?>
<!DOCTYPE svg PUBLIC "-//W3C//DTD SVG 1.1//EN" "http://www.w3.org/Graphics/SVG/1.1/DTD/svg11.dtd">
<svg width="100%" height="100%" viewBox="0 0 330 500" version="1.1" xmlns="http://www.w3.org/2000/svg" xmlns:xlink="http://www.w3.org/1999/xlink" xml:space="preserve" xmlns:serif="http://www.serif.com/" style="fill-rule:evenodd;clip-rule:evenodd;stroke-linejoin:round;stroke-miterlimit:2;">
    <g transform="matrix(1,0,0,1,-223.461,-50)">
        <g transform="matrix(1.88158,0,0,1.53962,-572.788,-207.106)">
            <rect x="423.182" y="166.993" width="175.385" height="324.755" style="fill:rgb(141,141,141);"/>
            <clipPath id="_clip1">
                <rect x="423.182" y="166.993" width="175.385" height="324.755"/>
            </clipPath>
            <g clip-path="url(#_clip1)">
                <g transform="matrix(0.802007,0,0,0.980137,199.3,177.407)">
                    <g>
                        <g transform="matrix(0.813845,0,0,1,72.3139,0)">
                            <path d="M388.461,168.446L344.945,168.446C313.309,176.135 300.339,214.525 292.535,235.048L288.755,345.921L388.461,345.921" style="fill:rgb(51,88,212);"/>
                        </g>
                        <g transform="matrix(-0.813845,0,0,1,704.673,0)">
                            <path d="M388.461,168.446L344.945,168.446C313.309,176.135 300.339,214.525 292.535,235.048L288.755,345.921L388.461,345.921" style="fill:rgb(51,88,212);"/>
                        </g>
                    </g>
                </g>
                <g transform="matrix(0.802007,0,0,0.980137,199.3,177.407)">
                    <g transform="matrix(0.888748,0,0,1,43.3446,-3.85477)">
                        <path d="M388.461,141.16L373.434,145.973L358.406,181.333L388.461,181.423" style="fill:rgb(160,117,83);"/>
                    </g>
                    <g transform="matrix(-0.888748,0,0,1,733.706,-3.85477)">
                        <path d="M388.461,141.16L373.434,145.973L358.406,181.333L388.461,181.423" style="fill:rgb(160,117,83);"/>
                    </g>
                </g>
                <g transform="matrix(0.382039,0,0,0.980137,362.543,173.957)">
                    <path d="M436.535,171.965L451.288,171.965L451.288,206.458L325.635,206.458L325.635,171.965L339.476,171.965C347.088,173.696 376.915,174.781 389.055,174.781C401.195,174.781 428.922,173.696 436.535,171.965Z" style="fill:rgb(51,88,212);"/>
                </g>
                <g transform="matrix(0.802007,0,0,0.968151,199.3,181.553)">
                    <path d="M388.461,345.921L332.422,345.921L343.792,222.65C351.3,223.158 361.28,210.237 365.623,196.617C368.025,189.084 371.117,172.353 365.224,166.248C371.066,168.056 379.282,168.552 388.589,168.446" style="fill:rgb(70,167,88);"/>
                    <g transform="matrix(-1,0,0,1,777.051,0)">
                        <path d="M388.461,345.921L332.422,345.921L343.792,222.65C351.3,223.158 361.28,210.237 365.623,196.617C368.025,189.084 371.082,172.353 365.189,166.248C372.205,168.128 380.097,168.725 388.589,168.446" style="fill:rgb(70,167,88);"/>
                    </g>
                </g>
                <g transform="matrix(0.499486,0,0,0.762528,316.817,195.764)">
                    <path d="M388.461,84.357L351.642,88.537L341.963,108.335L340.203,133.193L348.562,167.51L372.1,174.109L388.461,174.769" style="fill:rgb(173,127,88);"/>
                    <g transform="matrix(-1,0,0,1,776.923,0)">
                        <path d="M388.461,84.357L351.642,88.537L341.963,108.335L340.203,133.193L348.562,167.51L372.1,174.109L388.461,174.769" style="fill:rgb(173,127,88);"/>
                    </g>
                </g>
                <g transform="matrix(0.802007,0,0,0.980137,199.19,178.787)">
                    <ellipse cx="373.697" cy="106.883" rx="6.862" ry="3.229"/>
                </g>
                <g transform="matrix(0.802007,0,0,0.980137,223.09,178.787)">
                    <ellipse cx="373.697" cy="106.883" rx="6.862" ry="3.229"/>
                </g>
            </g>
        </g>
    </g>
</svg>
