<?xml version="1.0" encoding="UTF-8" standalone="no"?>
<!DOCTYPE svg PUBLIC "-//W3C//DTD SVG 1.1//EN" "http://www.w3.org/Graphics/SVG/1.1/DTD/svg11.dtd">
<svg width="100%" height="100%" viewBox="0 0 330 500" version="1.1" xmlns="http://www.w3.org/2000/svg" xmlns:xlink="http://www.w3.org/1999/xlink" xml:space="preserve" xmlns:serif="http://www.serif.com/" style="fill-rule:evenodd;clip-rule:evenodd;stroke-linejoin:round;stroke-miterlimit:2;">
    <g transform="matrix(1,0,0,1,-235,-50)">
        <g transform="matrix(1.49525,0,0,0.991403,-146.811,-44.8419)">
            <rect x="255.35" y="95.664" width="220.699" height="504.336" style="fill:rgb(0,144,255);"/>
        </g>
        <g transform="matrix(1,0,0,1.00627,0,28.6281)">
            <path d="M400,245.985L359.256,252.684L311.191,258.491C278.307,263.111 264.308,288.753 266.281,319.519L266.281,518.121L400,518.121" style="fill:rgb(131,131,131);"/>
            <g transform="matrix(-1,0,0,1,800,0)">
                <path d="M400,245.985L359.256,252.684L311.191,258.491C278.307,263.111 264.308,288.753 266.281,319.519L266.281,518.121L400,518.121" style="fill:rgb(131,131,131);"/>
            </g>
        </g>
        <g transform="matrix(1,0,0,1,0,31.8793)">
            <path d="M400,253.553L356.584,253.553L377.354,318.692C383.184,335.776 399.452,392.448 400,396.257L400,440.669C395.305,462.328 382.866,481.057 372.653,494.44L354.708,518.121L400,518.121" style="fill:rgb(242,242,242);"/>
            <g transform="matrix(-1,0,0,1,800,0)">
                <path d="M400,253.553L356.584,253.553L377.354,318.692C383.184,335.776 399.452,392.448 400,396.257L400,440.669C395.305,462.328 382.866,481.057 372.653,494.44L354.708,518.121L400,518.121" style="fill:rgb(242,242,242);"/>
            </g>
        </g>
        <g transform="matrix(1,0,0,1,0,31.8793)">
            <path d="M400,252.684L380.575,273.467L385.512,284.896L389.003,288.813L386.779,293.766L377.354,459.591L400,480.82" style="fill:rgb(141,141,141);"/>
            <g transform="matrix(-1,0,0,1,800,0)">
                <path d="M400,252.684L380.575,273.467L385.512,284.896L389.003,288.813L386.779,293.766L377.354,459.591L400,480.82" style="fill:rgb(141,141,141);"/>
            </g>
        </g>
        <g transform="matrix(1,0,0,1,0,31.8793)">
            <path d="M400,225.301L381.657,225.301L354.708,251.131L378.456,281.806L400,255.925" style="fill:rgb(249,253,254);"/>
            <g transform="matrix(-1,0,0,1,800,0)">
                <path d="M400,225.301L381.657,225.301L354.708,251.131L378.456,281.806L400,255.925" style="fill:rgb(249,253,254);"/>
            </g>
        </g>
        <g transform="matrix(1,0,0,1,0,31.8793)">
            <path d="M400,148.732L374.967,173.766L362.395,185.76C362.907,206.777 358.896,231.024 375.263,240.715L400,246.511" style="fill:rgb(173,127,88);"/>
            <g transform="matrix(-1,0,0,1,800,0)">
                <path d="M400,148.732L374.967,173.766L362.395,185.76C362.907,206.777 358.896,231.024 375.263,240.715L400,246.511" style="fill:rgb(173,127,88);"/>
            </g>
        </g>
        <g transform="matrix(1,0,0,1,0,31.8793)">
            <path d="M400,210.253L364.359,225.459L366.769,239.919L381.153,248.717L394.594,251.172L400,251.172" style="fill:rgb(13,9,11);"/>
            <g transform="matrix(-1,0,0,1,800,0)">
                <path d="M400,210.253L364.359,225.459L366.769,239.919L381.153,248.717L394.594,251.172L400,251.172" style="fill:rgb(13,9,11);"/>
            </g>
        </g>
        <g transform="matrix(1,0,0,0.848406,0,54.4262)">
            <path d="M400,148.732L374.967,173.766L362.395,185.76C362.907,206.777 358.896,231.024 375.263,240.715L400,246.511" style="fill:rgb(173,127,88);"/>
            <g transform="matrix(-1,0,0,1,800,0)">
                <path d="M400,148.732L374.967,173.766L362.395,185.76C362.907,206.777 358.896,231.024 375.263,240.715L400,246.511" style="fill:rgb(173,127,88);"/>
            </g>
        </g>
        <g transform="matrix(1,0,0,1,1.48951,48.7761)">
            <ellipse cx="398.51" cy="158.903" rx="46.724" ry="41.891" style="fill:rgb(173,127,88);"/>
        </g>
        <g transform="matrix(1,0,0,1.62621,0.850084,-44.5274)">
            <circle cx="380.807" cy="155.089" r="6.357" style="fill:rgb(10,10,10);"/>
        </g>
        <g transform="matrix(1,0,0,1.62621,38.5112,-44.5274)">
            <circle cx="380.807" cy="155.089" r="6.357" style="fill:rgb(10,10,10);"/>
        </g>
    </g>
</svg>
