<?xml version="1.0" encoding="UTF-8" standalone="no"?>
<!DOCTYPE svg PUBLIC "-//W3C//DTD SVG 1.1//EN" "http://www.w3.org/Graphics/SVG/1.1/DTD/svg11.dtd">
<svg width="100%" height="100%" viewBox="0 0 330 500" version="1.1" xmlns="http://www.w3.org/2000/svg" xmlns:xlink="http://www.w3.org/1999/xlink" xml:space="preserve" xmlns:serif="http://www.serif.com/" style="fill-rule:evenodd;clip-rule:evenodd;stroke-linejoin:round;stroke-miterlimit:2;">
    <g transform="matrix(1,0,0,1,-243.165,-26.9538)">
        <g transform="matrix(0.528305,0,0,1.0701,150.521,-93.8436)">
            <rect x="175.361" y="112.884" width="624.639" height="467.245" style="fill:rgb(62,99,221);"/>
        </g>
        <g transform="matrix(1.17251,0,0,1.17251,-70.4136,2.50122)">
            <path d="M408.165,168.332L386.553,176.122L381.86,181.003L373.202,178.844L379.796,162.64L396.784,156.787L415.556,156.599L431.887,158.289L447.468,170.678L454.601,185.789L460.444,200.612L456.778,218.278L448.529,227.902L439.363,244.4L430.287,251.259L408.165,256.796L408.165,250.851L424.138,245.985L441.535,217.007L442.688,198.986L440.093,185.146L429.521,170.826L408.165,168.332Z" style="fill:rgb(255,197,61);"/>
        </g>
        <g transform="matrix(1.17251,0,0,1.17251,-70.4136,2.50122)">
            <path d="M408.165,242.923L395.52,242.923L380.815,272.996L408.165,272.996" style="fill:rgb(223,52,120);"/>
            <g transform="matrix(-1,0,0,1,816.33,0)">
                <path d="M408.165,242.923L395.52,242.923L380.815,272.996L408.165,272.996" style="fill:rgb(223,52,120);"/>
            </g>
        </g>
        <g transform="matrix(0.528334,0,0,1.17251,192.518,2.50122)">
            <path d="M461.448,264.982L477.782,264.982L477.782,302.056L338.548,302.056L338.548,264.982L354.882,264.982C364.985,269.746 385.065,272.996 408.165,272.996C431.265,272.996 451.345,269.746 461.448,264.982Z" style="fill:rgb(62,155,79);"/>
        </g>
        <g transform="matrix(0.89977,0,0,1.17251,40.9103,2.50122)">
            <path d="M408.165,162.64L378.931,165.329L365.755,185.379L362.604,199.414L364.037,216.887L386.665,246.676L408.165,251.259" style="fill:rgb(233,61,130);"/>
            <g transform="matrix(-1,0,0,1,816.33,0)">
                <path d="M408.165,162.64L378.931,165.329L365.755,185.379L362.604,199.414L364.037,216.887L386.665,246.676L408.165,251.259" style="fill:rgb(233,61,130);"/>
            </g>
        </g>
        <g transform="matrix(0.932962,0,0,0.932962,22.8337,49.8987)">
            <ellipse cx="394.796" cy="190.114" rx="6.863" ry="11.204"/>
        </g>
        <g transform="matrix(0.932962,0,0,0.932962,56.8366,49.8987)">
            <ellipse cx="394.796" cy="190.114" rx="6.863" ry="11.204"/>
        </g>
        <g transform="matrix(1.17251,0,0,1.17251,-70.4136,2.50122)">
            <path d="M408.165,276.954L387.693,276.006L378.005,264.982L370.623,264.982C347.975,271.905 330.623,283.7 327.539,308.622L316.922,413.392L314.869,447.29L408.165,447.29" style="fill:rgb(62,155,79);"/>
        </g>
        <g transform="matrix(-1.17251,0,0,1.17251,886.744,2.50122)">
            <path d="M408.165,276.954L387.693,276.006L378.005,264.982L370.623,264.982C347.975,271.905 330.623,283.7 327.539,308.622L316.922,413.392L314.869,447.29L408.165,447.29" style="fill:rgb(62,155,79);"/>
        </g>
    </g>
</svg>
